<?xml version="1.0" encoding="utf-8"?>
<!-- Generator: Adobe Illustrator 23.1.1, SVG Export Plug-In . SVG Version: 6.00 Build 0)  -->
<svg version="1.1" id="Layer_1" xmlns="http://www.w3.org/2000/svg" xmlns:xlink="http://www.w3.org/1999/xlink" x="0px" y="0px"
	 viewBox="0 0 32 32" style="enable-background:new 0 0 32 32;" xml:space="preserve">
<style type="text/css">
	.st0{fill:url(#SVGID_1_);}
	.st1{fill:#F2F0F0;}
</style>
<g>
	<linearGradient id="SVGID_1_" gradientUnits="userSpaceOnUse" x1="16" y1="29.749" x2="16" y2="-2.251">
		<stop  offset="0" style="stop-color:#323090"/>
		<stop  offset="0.3058" style="stop-color:#3C3392"/>
		<stop  offset="0.8423" style="stop-color:#543C97"/>
		<stop  offset="0.9661" style="stop-color:#5A3E98"/>
		<stop  offset="1" style="stop-color:#000000"/>
	</linearGradient>
	<path class="st0" d="M32,32H0V0h32V32z"/>
</g>
<path class="st1" d="M24.71,13.24c1.61-0.52,3.06-5.81,2.46-5.48c-0.54,0.29-4.34,2.53-5.59,3.27c-1.67-0.83-3.57-1.3-5.58-1.3h0
	c-1.76,0-3.43,0.36-4.94,1C9.5,9.81,6.44,8.01,5.96,7.75c-0.52-0.28,0.5,3.62,1.82,5.03c-2.4,2.11-3.91,5.13-3.91,8.49v2.87
	l24.26,0.12v-2.99C28.13,18.15,26.83,15.32,24.71,13.24z"/>
</svg>
